{
    "asset" : {
        "generator" : "Khronos glTF Blender I/O v3.3.27",
        "version" : "2.0"
    },
    "scene" : 0,
    "scenes" : [
        {
            "name" : "Scene",
            "nodes" : [
                0
            ]
        }
    ],
    "nodes" : [
        {
            "mesh" : 0,
            "name" : "stem",
            "rotation" : [
                0.5006181001663208,
                -0.4993811845779419,
                -0.4993812143802643,
                0.500618040561676
            ],
            "scale" : [
                486.2945251464844,
                71.39057159423828,
                339.0443420410156
            ],
            "translation" : [
                0,
                1.606676459312439,
                0
            ]
        }
    ],
    "materials" : [
        {
            "doubleSided" : true,
            "name" : "SVGMat.002",
            "pbrMetallicRoughness" : {
                "baseColorFactor" : [
                    0.22696587443351746,
                    0.13563333451747894,
                    0.109461709856987,
                    1
                ],
                "metallicFactor" : 0,
                "roughnessFactor" : 0.4000000059604645
            }
        },
        {
            "doubleSided" : true,
            "name" : "SVGMat.001",
            "pbrMetallicRoughness" : {
                "baseColorFactor" : [
                    0.2788942754268646,
                    0.5149176716804504,
                    0.1119324266910553,
                    1
                ],
                "metallicFactor" : 0,
                "roughnessFactor" : 0.4000000059604645
            }
        },
        {
            "doubleSided" : true,
            "name" : "SVGMat.004",
            "pbrMetallicRoughness" : {
                "baseColorFactor" : [
                    0.6239603757858276,
                    0.68668532371521,
                    0.715693473815918,
                    1
                ],
                "metallicFactor" : 0,
                "roughnessFactor" : 0.4000000059604645
            }
        }
    ],
    "meshes" : [
        {
            "name" : "\ud050\ube0c",
            "primitives" : [
                {
                    "attributes" : {
                        "POSITION" : 0,
                        "NORMAL" : 1,
                        "TEXCOORD_0" : 2,
                        "TEXCOORD_1" : 3
                    },
                    "indices" : 4,
                    "material" : 0
                },
                {
                    "attributes" : {
                        "POSITION" : 5,
                        "NORMAL" : 6,
                        "TEXCOORD_0" : 7,
                        "TEXCOORD_1" : 8
                    },
                    "indices" : 9,
                    "material" : 1
                },
                {
                    "attributes" : {
                        "POSITION" : 10,
                        "NORMAL" : 11,
                        "TEXCOORD_0" : 12,
                        "TEXCOORD_1" : 13
                    },
                    "indices" : 14,
                    "material" : 2
                }
            ]
        }
    ],
    "accessors" : [
        {
            "bufferView" : 0,
            "componentType" : 5126,
            "count" : 54,
            "max" : [
                0.0032044369727373123,
                0.0004834938736166805,
                0.0005622860044240952
            ],
            "min" : [
                -0.0032044369727373123,
                0,
                -0.0005622860044240952
            ],
            "type" : "VEC3"
        },
        {
            "bufferView" : 1,
            "componentType" : 5126,
            "count" : 54,
            "type" : "VEC3"
        },
        {
            "bufferView" : 2,
            "componentType" : 5126,
            "count" : 54,
            "type" : "VEC2"
        },
        {
            "bufferView" : 3,
            "componentType" : 5126,
            "count" : 54,
            "type" : "VEC2"
        },
        {
            "bufferView" : 4,
            "componentType" : 5123,
            "count" : 90,
            "type" : "SCALAR"
        },
        {
            "bufferView" : 5,
            "componentType" : 5126,
            "count" : 1563,
            "max" : [
                -0.00013146782293915749,
                0.0007221504347398877,
                0.0038978310767561197
            ],
            "min" : [
                -0.006593458354473114,
                -0.00024000066332519054,
                -0.00468566594645381
            ],
            "type" : "VEC3"
        },
        {
            "bufferView" : 6,
            "componentType" : 5126,
            "count" : 1563,
            "type" : "VEC3"
        },
        {
            "bufferView" : 7,
            "componentType" : 5126,
            "count" : 1563,
            "type" : "VEC2"
        },
        {
            "bufferView" : 8,
            "componentType" : 5126,
            "count" : 1563,
            "type" : "VEC2"
        },
        {
            "bufferView" : 9,
            "componentType" : 5123,
            "count" : 2592,
            "type" : "SCALAR"
        },
        {
            "bufferView" : 10,
            "componentType" : 5126,
            "count" : 461,
            "max" : [
                0.003285038284957409,
                0.0007121970993466675,
                0.0016262867720797658
            ],
            "min" : [
                0.001390185789205134,
                -0.00024000050325412303,
                -0.0014555120142176747
            ],
            "type" : "VEC3"
        },
        {
            "bufferView" : 11,
            "componentType" : 5126,
            "count" : 461,
            "type" : "VEC3"
        },
        {
            "bufferView" : 12,
            "componentType" : 5126,
            "count" : 461,
            "type" : "VEC2"
        },
        {
            "bufferView" : 13,
            "componentType" : 5126,
            "count" : 461,
            "type" : "VEC2"
        },
        {
            "bufferView" : 14,
            "componentType" : 5123,
            "count" : 696,
            "type" : "SCALAR"
        }
    ],
    "bufferViews" : [
        {
            "buffer" : 0,
            "byteLength" : 648,
            "byteOffset" : 0,
            "target" : 34962
        },
        {
            "buffer" : 0,
            "byteLength" : 648,
            "byteOffset" : 648,
            "target" : 34962
        },
        {
            "buffer" : 0,
            "byteLength" : 432,
            "byteOffset" : 1296,
            "target" : 34962
        },
        {
            "buffer" : 0,
            "byteLength" : 432,
            "byteOffset" : 1728,
            "target" : 34962
        },
        {
            "buffer" : 0,
            "byteLength" : 180,
            "byteOffset" : 2160,
            "target" : 34963
        },
        {
            "buffer" : 0,
            "byteLength" : 18756,
            "byteOffset" : 2340,
            "target" : 34962
        },
        {
            "buffer" : 0,
            "byteLength" : 18756,
            "byteOffset" : 21096,
            "target" : 34962
        },
        {
            "buffer" : 0,
            "byteLength" : 12504,
            "byteOffset" : 39852,
            "target" : 34962
        },
        {
            "buffer" : 0,
            "byteLength" : 12504,
            "byteOffset" : 52356,
            "target" : 34962
        },
        {
            "buffer" : 0,
            "byteLength" : 5184,
            "byteOffset" : 64860,
            "target" : 34963
        },
        {
            "buffer" : 0,
            "byteLength" : 5532,
            "byteOffset" : 70044,
            "target" : 34962
        },
        {
            "buffer" : 0,
            "byteLength" : 5532,
            "byteOffset" : 75576,
            "target" : 34962
        },
        {
            "buffer" : 0,
            "byteLength" : 3688,
            "byteOffset" : 81108,
            "target" : 34962
        },
        {
            "buffer" : 0,
            "byteLength" : 3688,
            "byteOffset" : 84796,
            "target" : 34962
        },
        {
            "buffer" : 0,
            "byteLength" : 1392,
            "byteOffset" : 88484,
            "target" : 34963
        }
    ],
    "buffers" : [
        {
            "byteLength" : 89876,
            "uri" : "data:application/octet-stream;base64,"
        }
    ]
}
